<svg width="93" height="149" viewBox="0 0 93 149" fill="none" xmlns="http://www.w3.org/2000/svg">
<g filter="url(#filter0_f_33_1353)">
<circle cx="93.2085" cy="65.7465" r="7" transform="rotate(29.0308 93.2085 65.7465)" fill="#4285F4"/>
<circle cx="73.3254" cy="82.5748" r="7" transform="rotate(29.0308 73.3254 82.5748)" fill="#4285F4"/>
<circle cx="53.4421" cy="99.403" r="7" transform="rotate(29.0308 53.4421 99.403)" fill="#4285F4"/>
<circle cx="33.2678" cy="115.887" r="7" transform="rotate(29.0308 33.2678 115.887)" fill="#4285F4"/>
<circle cx="48.1579" cy="133.481" r="7" transform="rotate(29.0308 48.1579 133.481)" fill="#4285F4"/>
<circle cx="88.2154" cy="100.168" r="7" transform="rotate(29.0308 88.2154 100.168)" fill="#4285F4"/>
<circle cx="68.3323" cy="116.996" r="7" transform="rotate(29.0308 68.3323 116.996)" fill="#4285F4"/>
<circle cx="63.0481" cy="151.074" r="7" transform="rotate(29.0308 63.0481 151.074)" fill="#4285F4"/>
<circle cx="83.2224" cy="134.589" r="7" transform="rotate(29.0308 83.2224 134.589)" fill="#4285F4"/>
<circle cx="98.1125" cy="152.183" r="7" transform="rotate(29.0308 98.1125 152.183)" fill="#4285F4"/>
</g>
<defs>
<filter id="filter0_f_33_1353" x="16.2666" y="15.0886" width="223.05" height="223.359" filterUnits="userSpaceOnUse" color-interpolation-filters="sRGB">
<feFlood flood-opacity="0" result="BackgroundImageFix"/>
<feBlend mode="normal" in="SourceGraphic" in2="BackgroundImageFix" result="shape"/>
<feGaussianBlur stdDeviation="5" result="effect1_foregroundBlur_33_1353"/>
</filter>
</defs>
</svg>
