<svg width="25" height="26" viewBox="0 0 25 26" fill="none" xmlns="http://www.w3.org/2000/svg">
<g clip-path="url(#clip0_4_182)">
<path d="M24.7021 13.2339C24.7021 12.2096 24.619 11.4622 24.4391 10.6871H12.7433V15.31H19.6085C19.4701 16.4589 18.7227 18.189 17.0617 19.3516L17.0384 19.5064L20.7364 22.3712L20.9926 22.3968C23.3456 20.2237 24.7021 17.0263 24.7021 13.2339Z" fill="#4285F4"/>
<path d="M12.7433 25.4141C16.1066 25.4141 18.9302 24.3068 20.9926 22.3968L17.0617 19.3516C16.0098 20.0852 14.5979 20.5973 12.7433 20.5973C9.44909 20.5973 6.65319 18.4243 5.65653 15.4208L5.51044 15.4332L1.66522 18.4091L1.61493 18.5489C3.6634 22.6181 7.87113 25.4141 12.7433 25.4141Z" fill="#34A853"/>
<path d="M5.65658 15.4208C5.3936 14.6457 5.24141 13.8152 5.24141 12.9571C5.24141 12.0989 5.3936 11.2684 5.64274 10.4933L5.63578 10.3282L1.74236 7.30458L1.61498 7.36517C0.770701 9.05382 0.286255 10.9501 0.286255 12.9571C0.286255 14.964 0.770701 16.8602 1.61498 18.5489L5.65658 15.4208Z" fill="#FBBC05"/>
<path d="M12.7433 5.3167C15.0824 5.3167 16.6603 6.3271 17.56 7.17147L21.0756 3.73884C18.9165 1.73187 16.1066 0.5 12.7433 0.5C7.87113 0.5 3.6634 3.2959 1.61493 7.36517L5.6427 10.4933C6.65319 7.48979 9.44909 5.3167 12.7433 5.3167Z" fill="#EB4335"/>
</g>
<defs>
<clipPath id="clip0_4_182">
<rect width="24.43" height="25" fill="white" transform="translate(0.284973 0.5)"/>
</clipPath>
</defs>
</svg>
