<svg width="90" height="192" viewBox="0 0 90 192" fill="none" xmlns="http://www.w3.org/2000/svg">
<circle cx="93.2085" cy="65.7466" r="7" transform="rotate(29.0308 93.2085 65.7466)" fill="#4285F4"/>
<circle cx="73.3254" cy="82.5748" r="7" transform="rotate(29.0308 73.3254 82.5748)" fill="#4285F4"/>
<circle cx="53.4421" cy="99.403" r="7" transform="rotate(29.0308 53.4421 99.403)" fill="#4285F4"/>
<circle cx="33.2678" cy="115.887" r="7" transform="rotate(29.0308 33.2678 115.887)" fill="#4285F4"/>
<circle cx="48.158" cy="133.481" r="7" transform="rotate(29.0308 48.158 133.481)" fill="#4285F4"/>
<circle cx="88.2155" cy="100.168" r="7" transform="rotate(29.0308 88.2155 100.168)" fill="#4285F4"/>
<circle cx="68.3323" cy="116.996" r="7" transform="rotate(29.0308 68.3323 116.996)" fill="#4285F4"/>
<circle cx="63.0481" cy="151.074" r="7" transform="rotate(29.0308 63.0481 151.074)" fill="#4285F4"/>
<circle cx="83.2224" cy="134.589" r="7" transform="rotate(29.0308 83.2224 134.589)" fill="#4285F4"/>
<circle cx="77.9382" cy="168.667" r="7" transform="rotate(29.0308 77.9382 168.667)" fill="#4285F4"/>
<circle cx="98.1125" cy="152.183" r="7" transform="rotate(29.0308 98.1125 152.183)" fill="#4285F4"/>
<circle cx="92.8283" cy="186.26" r="7" transform="rotate(29.0308 92.8283 186.26)" fill="#4285F4"/>
</svg>
