<svg width="149" height="129" viewBox="0 0 149 129" fill="none" xmlns="http://www.w3.org/2000/svg">
<circle cx="-3.89442" cy="-7.23879" r="7" transform="rotate(29.0308 -3.89442 -7.23879)" fill="#4285F4"/>
<circle cx="10.9957" cy="10.3545" r="7" transform="rotate(29.0308 10.9957 10.3545)" fill="#4285F4"/>
<circle cx="65.6522" cy="-5.70866" r="7" transform="rotate(29.0308 65.6522 -5.70866)" fill="#4285F4"/>
<circle cx="30.8789" cy="-6.47376" r="7" transform="rotate(29.0308 30.8789 -6.47376)" fill="#4285F4"/>
<circle cx="25.8858" cy="27.9477" r="7" transform="rotate(29.0308 25.8858 27.9477)" fill="#4285F4"/>
<circle cx="-8.88753" cy="27.1827" r="7" transform="rotate(29.0308 -8.88753 27.1827)" fill="#4285F4"/>
<circle cx="6.00258" cy="44.7759" r="7" transform="rotate(29.0308 6.00258 44.7759)" fill="#4285F4"/>
<circle cx="80.5423" cy="11.8845" r="7" transform="rotate(29.0308 80.5423 11.8845)" fill="#4285F4"/>
<circle cx="45.769" cy="11.1195" r="7" transform="rotate(29.0308 45.769 11.1195)" fill="#4285F4"/>
<circle cx="60.6591" cy="28.7128" r="7" transform="rotate(29.0308 60.6591 28.7128)" fill="#4285F4"/>
<circle cx="40.776" cy="45.541" r="7" transform="rotate(29.0308 40.776 45.541)" fill="#4285F4"/>
<circle cx="20.8927" cy="62.3692" r="7" transform="rotate(29.0308 20.8927 62.3692)" fill="#4285F4"/>
<circle cx="100.425" cy="-4.9437" r="7" transform="rotate(29.0308 100.425 -4.9437)" fill="#4285F4"/>
<circle cx="115.316" cy="12.6496" r="7" transform="rotate(29.0308 115.316 12.6496)" fill="#4285F4"/>
<circle cx="0.718398" cy="78.8535" r="7" transform="rotate(29.0308 0.718398 78.8535)" fill="#4285F4"/>
<circle cx="15.6085" cy="96.4467" r="7" transform="rotate(29.0308 15.6085 96.4467)" fill="#4285F4"/>
<circle cx="95.4324" cy="29.4778" r="7" transform="rotate(29.0308 95.4324 29.4778)" fill="#4285F4"/>
<circle cx="75.5492" cy="46.306" r="7" transform="rotate(29.0308 75.5492 46.306)" fill="#4285F4"/>
<circle cx="55.666" cy="63.1341" r="7" transform="rotate(29.0308 55.666 63.1341)" fill="#4285F4"/>
<circle cx="35.7828" cy="79.9624" r="7" transform="rotate(29.0308 35.7828 79.9624)" fill="#4285F4"/>
</svg>
