<svg width="23" height="22" viewBox="0 0 23 22" fill="none" xmlns="http://www.w3.org/2000/svg">
<path fill-rule="evenodd" clip-rule="evenodd" d="M10.1583 20.9417C10.7023 21.463 11.5852 21.464 12.1304 20.9439C12.6756 20.4238 12.6765 19.5796 12.1325 19.0583L4.7596 11.9928L20.9159 12.011C21.6861 12.0119 22.3111 11.4157 22.3119 10.6793C22.3128 9.9429 21.6891 9.34524 20.9189 9.34437L4.76262 9.32611L12.1515 2.27726C12.6967 1.75718 12.6976 0.912961 12.1536 0.391647C11.6096 -0.129668 10.7267 -0.130666 10.1815 0.389418L0.410507 9.71076C0.407133 9.71397 0.403777 9.7172 0.400438 9.72044C0.154049 9.95984 0.00153796 10.2879 1.66941e-05 10.6501L6.45111e-06 10.6541L7.6522e-06 10.6581C0.00035548 10.8374 0.0377415 11.0084 0.105243 11.1646C0.171575 11.3183 0.269264 11.4626 0.398326 11.5886C0.401611 11.5918 0.404915 11.595 0.408233 11.5981" fill="white"/>
</svg>
