<svg width="142" height="142" viewBox="0 0 142 142" fill="none" xmlns="http://www.w3.org/2000/svg">
<circle cx="71.2828" cy="70.8497" r="44.5156" transform="rotate(150 71.2828 70.8497)" stroke="#EA4335" stroke-width="1.58984"/>
<path d="M32.7147 93.117C29.3019 95.0874 28.0963 99.4895 30.5177 102.599C34.6763 107.938 39.8583 112.427 45.7849 115.79C53.7882 120.331 62.8589 122.652 72.0595 122.514C81.2602 122.375 90.257 119.783 98.1201 115.003C103.943 111.464 108.988 106.821 112.984 101.359C115.311 98.1783 113.973 93.8144 110.503 91.9475C107.032 90.0807 102.753 91.4382 100.262 94.4916C97.584 97.7736 94.3571 100.591 90.708 102.809C85.0166 106.268 78.5045 108.145 71.845 108.245C65.1854 108.345 58.62 106.665 52.8271 103.378C49.113 101.271 45.8029 98.5522 43.0278 95.3521C40.446 92.3749 36.1274 91.1467 32.7147 93.117Z" fill="#EA4335"/>
</svg>
